<svg style="position: absolute; width: 0; height: 0; overflow: hidden;" aria-hidden="true" version="1.1" xmlns="http://www.w3.org/2000/svg" xmlns:xlink="http://www.w3.org/1999/xlink">
    <style>
        .default-palette, .palette0 {color: currentColor;
            --color0: #fff;
        }
    </style>
    <defs>
        <symbol id="navlink-statistics" viewBox="0 0 38 38" fill="none">
            <path fill="var(--color0, #fff)" fill-opacity="0.4" clip-rule="evenodd" d="M6 0C2.6863 0 0 2.6863 0 6v26c0 3.3137 2.6863 6 6 6h26c3.3137 0 6-2.6863 6-6V6c0-3.3137-2.6863-6-6-6zM29.5 16.5555c1.2833 0 2.3333-1.1 2.3333-2.4444 0-1.3445-1.05-2.4445-2.3333-2.4445-1.2834 0-2.3334 1.1-2.3334 2.4445 0 0.22 0.0234 0.4278 0.0817 0.6233l-4.1417 4.3511C22.92 19.0244 22.71 19 22.5 19s-0.42 0.0244-0.6067 0.0855l-2.975-3.1166C18.9766 15.7733 19 15.5533 19 15.3333c0-1.3444-1.05-2.4444-2.3334-2.4444-1.2833 0-2.3333 1.1-2.3333 2.4444 0 0.22 0.0233 0.44 0.0817 0.6356L9.095 21.53C8.9083 21.4689 8.71 21.4444 8.5 21.4444c-1.2834 0-2.3334 1.1-2.3334 2.4445 0 1.3444 1.05 2.4444 2.3334 2.4444 1.2833 0 2.3333-1.1 2.3333-2.4444 0-0.22-0.0233-0.4278-0.0817-0.6234l5.3084-5.5733c0.1866 0.0611 0.3966 0.0856 0.6066 0.0856s0.42-0.0245 0.6067-0.0856l2.975 3.1167c-0.0583 0.1955-0.0817 0.4155-0.0817 0.6355 0 1.3445 1.05 2.4445 2.3334 2.4445 1.2833 0 2.3333-1.1 2.3333-2.4445 0-0.22-0.0233-0.44-0.0817-0.6355L28.905 16.47c0.1866 0.0611 0.385 0.0855 0.595 0.0855z" fill-rule="evenodd" />
        </symbol>
        <symbol id="navlink-home" viewBox="0 0 38 38" fill="none">
            <path fill="var(--color0, #fff)" fill-opacity="0.4" clip-rule="evenodd" d="M6 0C2.6863 0 0 2.6863 0 6v26c0 3.3137 2.6863 6 6 6h26c3.3137 0 6-2.6863 6-6V6c0-3.3137-2.6863-6-6-6zM15.9333 21.3594v8.1961H9.1V18.6274H5L18.6667 6.3332 32.3333 18.6274h-4.1v10.9281H21.4v-8.1961z" fill-rule="evenodd" />
        </symbol>
        <symbol id="navlink-currency" viewBox="0 0 38 38" fill="none">
            <path fill="var(--color0, #fff)" fill-opacity="0.4" clip-rule="evenodd" d="M6 0C2.6863 0 0 2.6863 0 6v26c0 3.3137 2.6863 6 6 6h26c3.3137 0 6-2.6863 6-6V6c0-3.3137-2.6863-6-6-6zM15.7523 15.5989c0 1.182 0.9084 1.941 3.7329 2.6752 2.8244 0.7341 5.848 1.941 5.848 5.4748 0 2.5507-1.9286 3.9567-4.3549 4.4171v2.6752h-3.7328v-2.7001c-2.389-0.5101-4.4296-2.0406-4.5789-4.7655h2.7373c0.1369 1.4682 1.1448 2.6129 3.708 2.6129 2.7498 0 3.3595-1.3687 3.3595-2.2272 0-1.1572-0.6221-2.2521-3.7328-2.9987-3.4715-0.8337-5.8481-2.2646-5.8481-5.1388 0-2.4015 1.9411-3.9692 4.355-4.4918V8.4443l3.7328 0v2.725c2.6005 0.6346 3.907 2.6005 3.9941 4.7407h-2.7499c-0.0746-1.5554-0.8958-2.613-3.1106-2.613-2.1028 0-3.3596 0.9456-3.3596 2.3019z" fill-rule="evenodd" />
        </symbol>
    </defs>
</svg>