<svg xmlns="http://www.w3.org/2000/svg" style="display: none;">
  <symbol id="icon-logo" viewBox="0 0 32 32">
    <path d="M16 2l12 7v14l-12 7-12-7V9l12-7z" fill="currentColor" />
    <path d="M16 9l5 3v6l-5 3-5-3v-6l5-3z" fill="#fff" opacity=".35" />
  </symbol>
  <symbol id="icon-home" viewBox="0 0 24 24">
    <path d="M3 11.5L12 4l9 7.5V21h-6v-5h-6v5H3z" fill="currentColor" />
  </symbol>
  <symbol id="icon-statistics" viewBox="0 0 24 24">
    <path d="M5 20V10h3v10H5zm5 0V4h4v16h-4zm6 0v-7h3v7h-3z" fill="currentColor" />
  </symbol>
  <symbol id="icon-currency" viewBox="0 0 24 24">
    <path d="M12 3c3.866 0 7 2.686 7 6 0 2.47-1.742 4.592-4.232 5.52A7.12 7.12 0 0112 15a7.12 7.12 0 01-2.768-.48C6.742 13.592 5 11.47 5 9c0-3.314 3.134-6 7-6zm0 12c-3.866 0-7 2.686-7 6h14c0-3.314-3.134-6-7-6z" fill="currentColor" />
  </symbol>
  <symbol id="icon-exit" viewBox="0 0 24 24">
    <path d="M10 4H4v16h6v-2H6V6h4V4zm1 8l6-5v3h5v4h-5v3l-6-5z" fill="currentColor" />
  </symbol>
  <symbol id="icon-close" viewBox="0 0 24 24">
    <path d="M6 6l12 12M18 6L6 18" stroke="currentColor" stroke-width="2" stroke-linecap="round" />
  </symbol>
  <symbol id="icon-plus" viewBox="0 0 24 24">
    <path d="M12 5v14M5 12h14" stroke="currentColor" stroke-width="2" stroke-linecap="round" />
  </symbol>
  <symbol id="icon-edit" viewBox="0 0 24 24">
    <path d="M4 17.25V20h2.75L17.8 8.95l-2.75-2.75L4 17.25zm15.7-9.55a1 1 0 000-1.4l-2-2a1 1 0 00-1.4 0l-1.15 1.15 2.75 2.75L19.7 7.7z" fill="currentColor" />
  </symbol>
  <symbol id="icon-trash" viewBox="0 0 24 24">
    <path d="M7 21c-.55 0-1-.45-1-1V7h12v13c0 .55-.45 1-1 1H7zm3-17h4l1 1h4v2H5V5h4l1-1z" fill="currentColor" />
  </symbol>
  <symbol id="icon-email" viewBox="0 0 24 24">
    <path d="M4 6h16a2 2 0 012 2v8a2 2 0 01-2 2H4a2 2 0 01-2-2V8a2 2 0 012-2zm0 2l8 5 8-5" fill="none" stroke="currentColor" stroke-width="2" stroke-linejoin="round" />
  </symbol>
  <symbol id="icon-lock" viewBox="0 0 24 24">
    <path d="M7 10V8a5 5 0 1110 0v2h1a2 2 0 012 2v8H4v-8a2 2 0 012-2h1zm2 0h6V8a3 3 0 10-6 0v2z" fill="currentColor" />
  </symbol>
  <symbol id="icon-eye" viewBox="0 0 24 24">
    <path d="M12 5c5.5 0 9.5 5.5 9.5 7s-4 7-9.5 7S2.5 13.5 2.5 12 6.5 5 12 5zm0 3.5A3.5 3.5 0 1015.5 12 3.5 3.5 0 0012 8.5z" fill="currentColor" />
  </symbol>
  <symbol id="icon-eye-off" viewBox="0 0 24 24">
    <path d="M3 4.5L19.5 21M10.6 10.6A2 2 0 0010 12a2 2 0 003.4 1.4M6.2 7.7C4 9.5 2.5 11.6 2.5 12 2.5 13.5 6.5 19 12 19c1.8 0 3.4-.6 4.9-1.5m2.3-2.1c1.4-1.4 2.3-2.9 2.3-3.4 0-1.5-4-7-9.5-7-1.4 0-2.7.4-3.9 1" fill="none" stroke="currentColor" stroke-width="2" stroke-linecap="round" />
  </symbol>
  <symbol id="icon-user" viewBox="0 0 24 24">
    <path d="M12.0001 15C8.83002 15 6.01089 16.5306 4.21609 18.906C3.8298 19.4172 3.63665 19.6728 3.64297 20.0183C3.64785 20.2852 3.81546 20.6219 4.02546 20.7867C4.29728 21 4.67396 21 5.42733 21H18.5729C19.3262 21 19.7029 21 19.9747 20.7867C20.1847 20.6219 20.3523 20.2852 20.3572 20.0183C20.3635 19.6728 20.1704 19.4172 19.7841 18.906C17.9893 16.5306 15.1702 15 12.0001 15Z" fill="currentColor" fill-opacity="0.4"/>
    <path d="M12 12C14.4853 12 16.5 9.98528 16.5 7.5C16.5 5.01472 14.4853 3 12 3C9.51472 3 7.5 5.01472 7.5 7.5C7.5 9.98528 9.51472 12 12 12Z" fill="currentColor" fill-opacity="0.4"/>
  </symbol>
  <symbol id="icon-calendar" viewBox="0 0 24 24">
    <path d="M7 2v3M17 2v3M4 7h16M5 4h14a1 1 0 011 1v14a2 2 0 01-2 2H6a2 2 0 01-2-2V5a1 1 0 011-1z" fill="none" stroke="currentColor" stroke-width="2" stroke-linecap="round" />
  </symbol>
  <symbol id="icon-comment" viewBox="0 0 24 24">
    <path d="M4 4h16v11H7l-3 3V4z" fill="currentColor" />
  </symbol>
  <symbol id="icon-chevron-down" viewBox="0 0 24 24">
    <path d="M6 9l6 6 6-6" fill="none" stroke="currentColor" stroke-width="2" stroke-linecap="round" />
  </symbol>
</svg>
