<svg xmlns="http://www.w3.org/2000/svg" style="display: none;">
  <symbol id="icon-logo" viewBox="0 0 14 17">
    <path fill-rule="evenodd" clip-rule="evenodd" d="M9.69101 1.81702C8.47967 1.51418 7.26833 0.908508 6.35982 0C5.45131 0.908508 4.23997 1.51418 3.02863 1.81702C3.33146 4.54254 4.23997 6.35955 6.35982 7.87373C8.47967 6.35955 9.69101 4.54254 9.69101 1.81702Z" fill="#FFC727"/>
    <path fill-rule="evenodd" clip-rule="evenodd" d="M8.47953 13.0925L0.00012207 3.09888V7.94425L6.66251 15.5151L8.47953 13.0925Z" fill="#FBFBFB"/>
    <path fill-rule="evenodd" clip-rule="evenodd" d="M9.3881 12.1841L13.0221 7.94439V3.40186L7.26825 10.0642L9.3881 12.1841Z" fill="#FBFBFB"/>
    <path fill-rule="evenodd" clip-rule="evenodd" d="M9.69092 13.6986V16.4241L13.0221 12.4872V9.76172L9.69092 13.6986Z" fill="#FBFBFB"/>
    <path fill-rule="evenodd" clip-rule="evenodd" d="M3.33132 13.6986L0.00012207 9.76172V12.4872L3.33132 16.4241V13.6986Z" fill="#FBFBFB"/>
  </symbol>
  <symbol id="icon-home" viewBox="0 0 38 38">
            <path clip-rule="evenodd" d="M6 0C2.6863 0 0 2.6863 0 6v26c0 3.3137 2.6863 6 6 6h26c3.3137 0 6-2.6863 6-6V6c0-3.3137-2.6863-6-6-6zM15.9333 21.3594v8.1961H9.1V18.6274H5L18.6667 6.3332 32.3333 18.6274h-4.1v10.9281H21.4v-8.1961z" fill-rule="evenodd" />
  </symbol>
  <symbol id="icon-statistics" viewBox="0 0 38 38">
            <path clip-rule="evenodd" d="M6 0C2.6863 0 0 2.6863 0 6v26c0 3.3137 2.6863 6 6 6h26c3.3137 0 6-2.6863 6-6V6c0-3.3137-2.6863-6-6-6zM29.5 16.5555c1.2833 0 2.3333-1.1 2.3333-2.4444 0-1.3445-1.05-2.4445-2.3333-2.4445-1.2834 0-2.3334 1.1-2.3334 2.4445 0 0.22 0.0234 0.4278 0.0817 0.6233l-4.1417 4.3511C22.92 19.0244 22.71 19 22.5 19s-0.42 0.0244-0.6067 0.0855l-2.975-3.1166C18.9766 15.7733 19 15.5533 19 15.3333c0-1.3444-1.05-2.4444-2.3334-2.4444-1.2833 0-2.3333 1.1-2.3333 2.4444 0 0.22 0.0233 0.44 0.0817 0.6356L9.095 21.53C8.9083 21.4689 8.71 21.4444 8.5 21.4444c-1.2834 0-2.3334 1.1-2.3334 2.4445 0 1.3444 1.05 2.4444 2.3334 2.4444 1.2833 0 2.3333-1.1 2.3333-2.4444 0-0.22-0.0233-0.4278-0.0817-0.6234l5.3084-5.5733c0.1866 0.0611 0.3966 0.0856 0.6066 0.0856s0.42-0.0245 0.6067-0.0856l2.975 3.1167c-0.0583 0.1955-0.0817 0.4155-0.0817 0.6355 0 1.3445 1.05 2.4445 2.3334 2.4445 1.2833 0 2.3333-1.1 2.3333-2.4445 0-0.22-0.0233-0.44-0.0817-0.6355L28.905 16.47c0.1866 0.0611 0.385 0.0855 0.595 0.0855z" fill-rule="evenodd" />
  </symbol>
  <symbol id="icon-currency" viewBox="0 0 38 38">
            <path clip-rule="evenodd" d="M6 0C2.6863 0 0 2.6863 0 6v26c0 3.3137 2.6863 6 6 6h26c3.3137 0 6-2.6863 6-6V6c0-3.3137-2.6863-6-6-6zM15.7523 15.5989c0 1.182 0.9084 1.941 3.7329 2.6752 2.8244 0.7341 5.848 1.941 5.848 5.4748 0 2.5507-1.9286 3.9567-4.3549 4.4171v2.6752h-3.7328v-2.7001c-2.389-0.5101-4.4296-2.0406-4.5789-4.7655h2.7373c0.1369 1.4682 1.1448 2.6129 3.708 2.6129 2.7498 0 3.3595-1.3687 3.3595-2.2272 0-1.1572-0.6221-2.2521-3.7328-2.9987-3.4715-0.8337-5.8481-2.2646-5.8481-5.1388 0-2.4015 1.9411-3.9692 4.355-4.4918V8.4443l3.7328 0v2.725c2.6005 0.6346 3.907 2.6005 3.9941 4.7407h-2.7499c-0.0746-1.5554-0.8958-2.613-3.1106-2.613-2.1028 0-3.3596 0.9456-3.3596 2.3019z" fill-rule="evenodd" />
  </symbol>
  <symbol id="icon-exit" viewBox="0 0 24 24">
    <path d="M10 4H4v16h6v-2H6V6h4V4zm1 8l6-5v3h5v4h-5v3l-6-5z" fill="currentColor" />
  </symbol>
  <symbol id="icon-close" viewBox="0 0 24 24">
    <path d="M6 6l12 12M18 6L6 18" stroke="currentColor" stroke-width="2" stroke-linecap="round" />
  </symbol>
  <symbol id="icon-plus" viewBox="0 0 24 24">
    <path d="M12 5v14M5 12h14" stroke="currentColor" stroke-width="2" stroke-linecap="round" />
  </symbol>
  <symbol id="icon-edit" viewBox="0 0 24 24">
    <path d="M4 17.25V20h2.75L17.8 8.95l-2.75-2.75L4 17.25zm15.7-9.55a1 1 0 000-1.4l-2-2a1 1 0 00-1.4 0l-1.15 1.15 2.75 2.75L19.7 7.7z" fill="currentColor" />
  </symbol>
  <symbol id="icon-trash" viewBox="0 0 24 24">
    <path d="M7 21c-.55 0-1-.45-1-1V7h12v13c0 .55-.45 1-1 1H7zm3-17h4l1 1h4v2H5V5h4l1-1z" fill="currentColor" />
  </symbol>
  <symbol id="icon-email" viewBox="0 0 24 24">
    <path d="M4 6h16a2 2 0 012 2v8a2 2 0 01-2 2H4a2 2 0 01-2-2V8a2 2 0 012-2zm0 2l8 5 8-5" fill="none" stroke="currentColor" stroke-width="2" stroke-linejoin="round" />
  </symbol>
  <symbol id="icon-lock" viewBox="0 0 24 24">
    <path d="M7 10V8a5 5 0 1110 0v2h1a2 2 0 012 2v8H4v-8a2 2 0 012-2h1zm2 0h6V8a3 3 0 10-6 0v2z" fill="currentColor" />
  </symbol>
  <symbol id="icon-eye" viewBox="0 0 24 24">
    <path d="M12 5c5.5 0 9.5 5.5 9.5 7s-4 7-9.5 7S2.5 13.5 2.5 12 6.5 5 12 5zm0 3.5A3.5 3.5 0 1015.5 12 3.5 3.5 0 0012 8.5z" fill="currentColor" />
  </symbol>
  <symbol id="icon-eye-off" viewBox="0 0 24 24">
    <path d="M3 4.5L19.5 21M10.6 10.6A2 2 0 0010 12a2 2 0 003.4 1.4M6.2 7.7C4 9.5 2.5 11.6 2.5 12 2.5 13.5 6.5 19 12 19c1.8 0 3.4-.6 4.9-1.5m2.3-2.1c1.4-1.4 2.3-2.9 2.3-3.4 0-1.5-4-7-9.5-7-1.4 0-2.7.4-3.9 1" fill="none" stroke="currentColor" stroke-width="2" stroke-linecap="round" />
  </symbol>
  <symbol id="icon-user" viewBox="0 0 24 24">
    <path d="M12.0001 15C8.83002 15 6.01089 16.5306 4.21609 18.906C3.8298 19.4172 3.63665 19.6728 3.64297 20.0183C3.64785 20.2852 3.81546 20.6219 4.02546 20.7867C4.29728 21 4.67396 21 5.42733 21H18.5729C19.3262 21 19.7029 21 19.9747 20.7867C20.1847 20.6219 20.3523 20.2852 20.3572 20.0183C20.3635 19.6728 20.1704 19.4172 19.7841 18.906C17.9893 16.5306 15.1702 15 12.0001 15Z" fill="currentColor" fill-opacity="0.4"/>
    <path d="M12 12C14.4853 12 16.5 9.98528 16.5 7.5C16.5 5.01472 14.4853 3 12 3C9.51472 3 7.5 5.01472 7.5 7.5C7.5 9.98528 9.51472 12 12 12Z" fill="currentColor" fill-opacity="0.4"/>
  </symbol>
  <symbol id="icon-calendar" viewBox="0 0 24 24">
    <path d="M7 2v3M17 2v3M4 7h16M5 4h14a1 1 0 011 1v14a2 2 0 01-2 2H6a2 2 0 01-2-2V5a1 1 0 011-1z" fill="none" stroke="currentColor" stroke-width="2" stroke-linecap="round" />
  </symbol>
  <symbol id="icon-comment" viewBox="0 0 24 24">
    <path d="M4 4h16v11H7l-3 3V4z" fill="currentColor" />
  </symbol>
  <symbol id="icon-chevron-down" viewBox="0 0 24 24">
    <path d="M6 9l6 6 6-6" fill="none" stroke="currentColor" stroke-width="2" stroke-linecap="round" />
  </symbol>
</svg>

