<svg width="337" height="72" viewBox="0 0 337 72" fill="none" xmlns="http://www.w3.org/2000/svg">
<path d="M0.276245 47.791L27.1562 29.9726C29.4858 28.0309 35.9729 24.1474 43.2842 24.1474C50.5956 24.1474 56.3658 26.8886 58.337 28.2593L115.86 67.3227C117.473 68.4649 122.419 70.7493 129.3 70.7493C136.182 70.7493 141.127 68.4649 142.74 67.3227L242.196 5.98258C244.705 4.15505 250.26 0.5 257.249 0.5C264.238 0.5 270.51 4.15505 273.377 5.98258L294.881 20.3744C296.315 21.2881 300.795 23.1156 307.246 23.1156C313.697 23.1156 317.185 21.1246 318.535 20.3744C323.242 17.7597 326.621 14.9387 332.513 15.2344C333.27 15.2724 335.052 15.4345 336.276 15.9198" stroke="#FF868D"/>
</svg>
