<svg width="336" height="88" viewBox="0 0 336 88" fill="none" xmlns="http://www.w3.org/2000/svg">
<path d="M26.88 29.4726L0 47.291V80.0002C0 84.4185 3.58173 88.0002 8.00001 88.0002H328C332.418 88.0002 336 84.4185 336 80.0003V15.4198C334.776 14.9345 332.993 14.7724 332.237 14.7344C326.345 14.4387 322.966 17.2597 318.259 19.8744L318.201 19.9068C316.81 20.6804 313.33 22.6156 306.97 22.6156C300.518 22.6156 296.038 20.7881 294.605 19.8744L273.101 5.48258C270.234 3.65505 263.962 0 256.973 0C249.984 0 244.429 3.65505 241.92 5.48258L142.464 66.8227C140.851 67.9649 135.905 70.2493 129.024 70.2493C122.143 70.2493 117.197 67.9649 115.584 66.8227L58.0608 27.7593C56.0896 26.3886 50.3194 23.6474 43.008 23.6474C35.6966 23.6474 29.2096 27.5308 26.88 29.4726Z" fill="url(#paint0_linear_2192_274)" fill-opacity="0.6"/>
<path d="M26.88 29.4726L0 47.291V80.0002C0 84.4185 3.58173 88.0002 8.00001 88.0002H328C332.418 88.0002 336 84.4185 336 80.0003V15.4198C334.776 14.9345 332.993 14.7724 332.237 14.7344C326.345 14.4387 322.966 17.2597 318.259 19.8744L318.201 19.9068C316.81 20.6804 313.33 22.6156 306.97 22.6156C300.518 22.6156 296.038 20.7881 294.605 19.8744L273.101 5.48258C270.234 3.65505 263.962 0 256.973 0C249.984 0 244.429 3.65505 241.92 5.48258L142.464 66.8227C140.851 67.9649 135.905 70.2493 129.024 70.2493C122.143 70.2493 117.197 67.9649 115.584 66.8227L58.0608 27.7593C56.0896 26.3886 50.3194 23.6474 43.008 23.6474C35.6966 23.6474 29.2096 27.5308 26.88 29.4726Z" fill="#390096" fill-opacity="0.2"/>
<defs>
<linearGradient id="paint0_linear_2192_274" x1="168" y1="12.95" x2="168" y2="102.2" gradientUnits="userSpaceOnUse">
<stop stop-color="white"/>
<stop offset="0.374892" stop-color="white" stop-opacity="0.536458"/>
<stop offset="0.6091" stop-color="white" stop-opacity="0.269957"/>
<stop offset="0.766012" stop-color="white" stop-opacity="0.151176"/>
<stop offset="1" stop-color="white" stop-opacity="0"/>
</linearGradient>
</defs>
</svg>
