<svg width="320" height="71" viewBox="0 0 320 71" fill="none" xmlns="http://www.w3.org/2000/svg">
<path d="M0 47.6232L25.6 29.868C27.8187 27.9332 33.9968 24.0634 40.96 24.0634C47.9232 24.0634 53.4187 26.795 55.296 28.1608L110.08 67.0855C111.616 68.2237 116.326 70.5 122.88 70.5C129.434 70.5 134.144 68.2237 135.68 67.0855L230.4 5.96313C232.789 4.14208 238.08 0.5 244.736 0.5C251.392 0.5 257.365 4.14208 260.096 5.96313L280.576 20.3038C281.941 21.2144 286.208 23.0354 292.352 23.0354C298.496 23.0354 301.818 21.0514 303.104 20.3038C307.586 17.6985 310.805 14.8875 316.416 15.1821C317.137 15.22 318.834 15.3815 320 15.865" stroke="#FF868D"/>
</svg>
