<svg width="480" height="102" viewBox="0 0 480 102" fill="none" xmlns="http://www.w3.org/2000/svg">
<path d="M0 68.0585L38.4 42.6037C41.728 39.8298 50.9952 34.2819 61.44 34.2819C71.8848 34.2819 80.128 38.1981 82.944 40.1561L165.12 95.961C167.424 97.5927 174.49 100.856 184.32 100.856C194.15 100.856 201.216 97.5927 203.52 95.961L345.6 8.33226C349.184 5.72151 357.12 0.5 367.104 0.5C377.088 0.5 386.048 5.72151 390.144 8.33226L420.864 28.8919C422.912 30.1973 429.312 32.8081 438.528 32.8081C447.744 32.8081 452.727 29.9637 454.656 28.8919C461.379 25.1567 466.207 21.1267 474.624 21.5492C475.705 21.6035 478.251 21.835 480 22.5282" stroke="#FF868D"/>
</svg>
